# xmcd
#
# Track frame offsets: 
#        150
#        16510
#        29536
#        42882
#        53467
#        63278
#        76303
#        86423
#        97195
#        110353
#        130500
#        145501
#        160008
#
# Disc length: 2464 seconds
#
# Revision: 2
# Processed by: cddbd v1.5.2PL0 Copyright (c) Steve Scherf et al.
# Submitted via: ExactAudioCopy v1.0b1
#
DISCID=8e099e0d
DTITLE=Arctic Monkeys - Whatever People Say I Am, That's What I'm Not
DYEAR=2006
DGENRE=Indie
TTITLE0=The View From The Afternoon
TTITLE1=I Bet You Look Good On The Dancefloor
TTITLE2=Fake Tales Of San Francisco
TTITLE3=Dancing Shoes
TTITLE4=You Probably Couldn't See For The Lights But You Were Staring 
TTITLE4=Straight At Me
TTITLE5=Still Take You Home
TTITLE6=Riot Van
TTITLE7=Red Light Indicates Doors Are Secured
TTITLE8=Mardy Bum
TTITLE9=Perhaps Vampires Is A Bit Strong But..
TTITLE10=When The Sun Goes Down
TTITLE11=From The Ritz To The Rubble
TTITLE12=A Certain Romance
EXTD=
EXTT0=
EXTT1=
EXTT2=
EXTT3=
EXTT4=
EXTT5=
EXTT6=
EXTT7=
EXTT8=
EXTT9=
EXTT10=
EXTT11=
EXTT12=
PLAYORDER=
